<?xml version="1.0" encoding="UTF-8" standalone="no"?>
<svg
   xmlns:dc="http://purl.org/dc/elements/1.1/"
   xmlns:cc="http://creativecommons.org/ns#"
   xmlns:rdf="http://www.w3.org/1999/02/22-rdf-syntax-ns#"
   xmlns:svg="http://www.w3.org/2000/svg"
   xmlns="http://www.w3.org/2000/svg"
   xmlns:sodipodi="http://sodipodi.sourceforge.net/DTD/sodipodi-0.dtd"
   xmlns:inkscape="http://www.inkscape.org/namespaces/inkscape"
   width="30"
   height="30"
   viewBox="0 0 30 30"
   fill="none"
   version="1.1"
   id="svg12"
   sodipodi:docname="header-avatar.svg"
   inkscape:version="1.0.1 (3bc2e813f5, 2020-09-07)">
  <metadata
     id="metadata18">
    <rdf:RDF>
      <cc:Work
         rdf:about="">
        <dc:format>image/svg+xml</dc:format>
        <dc:type
           rdf:resource="http://purl.org/dc/dcmitype/StillImage" />
      </cc:Work>
    </rdf:RDF>
  </metadata>
  <defs
     id="defs16" />
  <sodipodi:namedview
     pagecolor="#ffffff"
     bordercolor="#666666"
     borderopacity="1"
     objecttolerance="10"
     gridtolerance="10"
     guidetolerance="10"
     inkscape:pageopacity="0"
     inkscape:pageshadow="2"
     inkscape:window-width="1280"
     inkscape:window-height="961"
     id="namedview14"
     showgrid="false"
     inkscape:zoom="12.55"
     inkscape:cx="15.900907"
     inkscape:cy="20.902603"
     inkscape:window-x="-8"
     inkscape:window-y="-8"
     inkscape:window-maximized="1"
     inkscape:current-layer="svg12" />
  <rect
     width="30"
     height="30"
     rx="0"
     fill="#313131"
     id="rect8"
     x="0"
     y="0" />
  <path
     fill-rule="evenodd"
     clip-rule="evenodd"
     d="M16.4303 16.9675C17.7917 16.4052 18.7498 15.0645 18.7498 13.5C18.7498 11.4289 17.0708 9.75 14.9998 9.75C12.9287 9.75 11.2498 11.4289 11.2498 13.5C11.2498 15.0645 12.2078 16.4052 13.5693 16.9675C12.175 17.1998 10.8924 17.7657 9.80835 18.5802L11.1899 20.419C12.2512 19.6217 13.5687 19.1496 14.9999 19.1496C16.431 19.1496 17.7485 19.6217 18.8098 20.419L20.1914 18.5802C19.1073 17.7657 17.8246 17.1997 16.4303 16.9675Z"
     fill="white"
     id="path10" />
</svg>
