<?xml version="1.0" encoding="UTF-8" standalone="no"?>
<svg
   xmlns:dc="http://purl.org/dc/elements/1.1/"
   xmlns:cc="http://creativecommons.org/ns#"
   xmlns:rdf="http://www.w3.org/1999/02/22-rdf-syntax-ns#"
   xmlns:svg="http://www.w3.org/2000/svg"
   xmlns="http://www.w3.org/2000/svg"
   xmlns:sodipodi="http://sodipodi.sourceforge.net/DTD/sodipodi-0.dtd"
   xmlns:inkscape="http://www.inkscape.org/namespaces/inkscape"
   width="60"
   height="34"
   viewBox="0 0 60 34"
   fill="none"
   version="1.1"
   id="svg6"
   sodipodi:docname="movie-find-button.svg"
   inkscape:version="1.0.1 (3bc2e813f5, 2020-09-07)">
  <metadata
     id="metadata12">
    <rdf:RDF>
      <cc:Work
         rdf:about="">
        <dc:format>image/svg+xml</dc:format>
        <dc:type
           rdf:resource="http://purl.org/dc/dcmitype/StillImage" />
        <dc:title></dc:title>
      </cc:Work>
    </rdf:RDF>
  </metadata>
  <defs
     id="defs10" />
  <sodipodi:namedview
     pagecolor="#ffffff"
     bordercolor="#666666"
     borderopacity="1"
     objecttolerance="10"
     gridtolerance="10"
     guidetolerance="10"
     inkscape:pageopacity="0"
     inkscape:pageshadow="2"
     inkscape:window-width="1280"
     inkscape:window-height="961"
     id="namedview8"
     showgrid="false"
     showguides="true"
     inkscape:guide-bbox="true"
     inkscape:snap-bbox="true"
     inkscape:bbox-paths="true"
     inkscape:bbox-nodes="true"
     inkscape:snap-bbox-edge-midpoints="true"
     inkscape:snap-bbox-midpoints="true"
     inkscape:zoom="7.14375"
     inkscape:cx="28.591426"
     inkscape:cy="22.179353"
     inkscape:window-x="-8"
     inkscape:window-y="-8"
     inkscape:window-maximized="1"
     inkscape:current-layer="svg6" />
  <rect
     x="0"
     width="60"
     height="34"
     rx="17.391304"
     fill="#4285f4"
     id="rect2"
     y="0"
     style="stroke-width:1.01144" />
  <path
     d="m 14.224603,20.94925 h 1.207 v -3.4883 h 3.9883 v 3.4883 h 1.2109 v -8 h -1.2109 v 3.4766 h -3.9883 v -3.4766 h -1.207 z m 9.8164,0.1328 c 0.9922,0 1.5508,-0.5039 1.7734,-0.9531 h 0.0469 v 0.8203 h 1.1406 v -3.9844 c 0,-1.7461 -1.375,-2.0937 -2.3281,-2.0937 -1.0859,0 -2.0859,0.4375 -2.4766,1.5312 l 1.0977,0.25 c 0.1719,-0.4258 0.6094,-0.8359 1.3945,-0.8359 0.7539,0 1.1406,0.3945 1.1406,1.0742 v 0.0273 c 0,0.4258 -0.4375,0.418 -1.5156,0.543 -1.1367,0.1328 -2.3008,0.4297 -2.3008,1.793 0,1.1797 0.8868,1.8281 2.0274,1.8281 z m 0.2539,-0.9375 c -0.6602,0 -1.1367,-0.2969 -1.1367,-0.875 0,-0.625 0.5547,-0.8476 1.2304,-0.9375 0.3789,-0.0508 1.2774,-0.1523 1.4454,-0.3203 v 0.7734 c 0,0.711 -0.5665,1.3594 -1.5391,1.3594 z m 5.4072,-0.832 v -4.3633 h -1.1445 v 6 h 1.2695 l 2.6328,-4.3672 v 4.3672 h 1.1446 v -6 h -1.2579 z m 2.1445,-6.3946 c 0,0.3946 -0.2187,0.7422 -0.7656,0.7422 -0.5547,0 -0.7617,-0.3515 -0.7617,-0.7422 h -0.957 c 0,0.879 0.6679,1.4844 1.7187,1.4844 1.0586,0 1.7266,-0.6054 1.7266,-1.4844 z m 2.584,3.0391 h 1.9649 v 4.9922 h 1.1406 v -4.9922 h 1.957 v -1.0078 h -5.0625 z m 7.4424,3.3555 v -4.3633 h -1.1445 v 6 h 1.2695 l 2.6328,-4.3672 v 4.3672 h 1.1446 v -6 h -1.2579 z"
     fill="#ffffff"
     id="path4" />
</svg>
